<svg version="1.1" viewBox="0.0 0.0 100.0 100.0" fill="none" stroke="none" stroke-linecap="square" stroke-miterlimit="10" xmlns:xlink="http://www.w3.org/1999/xlink" xmlns="http://www.w3.org/2000/svg"><clipPath id="p.0"><path d="m0 0l100.0 0l0 100.0l-100.0 0l0 -100.0z" clip-rule="nonzero"/></clipPath><g clip-path="url(#p.0)"><path fill="#000000" fill-opacity="0.0" d="m0 0l100.0 0l0 100.0l-100.0 0z" fill-rule="evenodd"/><defs><radialGradient id="p.1" gradientUnits="userSpaceOnUse" gradientTransform="matrix(8.408964030014094 0.0 0.0 8.408964030014094 0.0 0.0)" spreadMethod="pad" cx="5.946035661650487" cy="5.946035661650487" fx="5.946035661650487" fy="5.946035661650487" r="8.408964157104492"><stop offset="0.0" stop-color="#fff6db"/><stop offset="1.0" stop-color="#fad25c"/></radialGradient></defs><path fill="url(#p.1)" d="m0 0l100.0 0l0 100.0l-100.0 0z" fill-rule="evenodd"/><path fill="#ffffff" d="m10.047244 21.861158l0 0c0 -7.3552456 5.9626055 -13.317851 13.317851 -13.317851l53.269806 0l0 0c3.5321121 0 6.9195633 1.4031267 9.417145 3.9007082c2.4975815 2.4975815 3.900711 5.885029 3.900711 9.417143l0 54.592644c0 7.3552475 -5.9626083 13.317848 -13.317856 13.317848l-53.269806 0c-7.3552456 0 -13.317851 -5.9626007 -13.317851 -13.317848z" fill-rule="evenodd"/><path stroke="#000000" stroke-width="3.0" stroke-linejoin="round" stroke-linecap="butt" d="m10.047244 21.861158l0 0c0 -7.3552456 5.9626055 -13.317851 13.317851 -13.317851l53.269806 0l0 0c3.5321121 0 6.9195633 1.4031267 9.417145 3.9007082c2.4975815 2.4975815 3.900711 5.885029 3.900711 9.417143l0 54.592644c0 7.3552475 -5.9626083 13.317848 -13.317856 13.317848l-53.269806 0c-7.3552456 0 -13.317851 -5.9626007 -13.317851 -13.317848z" fill-rule="evenodd"/><path fill="#ffffff" d="m53.025887 50.15022l-3.0236206 3.8425179l-3.0236244 -3.8425179z" fill-rule="evenodd"/><path stroke="#000000" stroke-width="3.0" stroke-linejoin="round" stroke-linecap="butt" d="m53.025887 50.15022l-3.0236206 3.8425179l-3.0236244 -3.8425179z" fill-rule="evenodd"/><path fill="#000000" fill-opacity="0.0" d="m26.491913 36.622753l4.2095737 -14.412201l13.550043 7.3469524" fill-rule="evenodd"/><path stroke="#000000" stroke-width="3.0" stroke-linejoin="round" stroke-linecap="butt" d="m26.491913 36.622753l4.2095737 -14.412201l13.550043 7.3469524" fill-rule="evenodd"/><path fill="#000000" fill-opacity="0.0" d="m56.755962 29.328068l13.718182 -6.1010113l3.1497498 15.087675" fill-rule="evenodd"/><path stroke="#000000" stroke-width="3.0" stroke-linejoin="round" stroke-linecap="butt" d="m56.755962 29.328068l13.718182 -6.1010113l3.1497498 15.087675" fill-rule="evenodd"/><path fill="#000000" fill-opacity="0.0" d="m20.435696 54.5853l17.417324 0" fill-rule="evenodd"/><path stroke="#000000" stroke-width="2.0" stroke-linejoin="round" stroke-linecap="butt" d="m20.435696 54.5853l17.417324 0" fill-rule="evenodd"/><path fill="#000000" fill-opacity="0.0" d="m23.952755 62.96063l14.740158 -6.047241" fill-rule="evenodd"/><path stroke="#000000" stroke-width="2.0" stroke-linejoin="round" stroke-linecap="butt" d="m23.952755 62.96063l14.740158 -6.047241" fill-rule="evenodd"/><path fill="#000000" fill-opacity="0.0" d="m30.821522 67.65092l9.228348 -7.874016" fill-rule="evenodd"/><path stroke="#000000" stroke-width="2.0" stroke-linejoin="round" stroke-linecap="butt" d="m30.821522 67.65092l9.228348 -7.874016" fill-rule="evenodd"/><path fill="#000000" fill-opacity="0.0" d="m60.637794 53.745407l17.763779 0.15747833" fill-rule="evenodd"/><path stroke="#000000" stroke-width="2.0" stroke-linejoin="round" stroke-linecap="butt" d="m60.637794 53.745407l17.763779 0.15747833" fill-rule="evenodd"/><path fill="#000000" fill-opacity="0.0" d="m61.14173 56.92651l13.889763 5.354328" fill-rule="evenodd"/><path stroke="#000000" stroke-width="2.0" stroke-linejoin="round" stroke-linecap="butt" d="m61.14173 56.92651l13.889763 5.354328" fill-rule="evenodd"/><path fill="#000000" fill-opacity="0.0" d="m60.301838 59.10499l5.354328 7.0236206" fill-rule="evenodd"/><path stroke="#000000" stroke-width="2.0" stroke-linejoin="round" stroke-linecap="butt" d="m60.301838 59.10499l5.354328 7.0236206" fill-rule="evenodd"/></g></svg>